<svg width="400" height="250" viewBox="0 0 400 250" xmlns="http://www.w3.org/2000/svg"><defs><pattern id="g" width="40" height="40" patternUnits="userSpaceOnUse"><path d="M 40 0 L 0 0 0 40" fill="none" stroke="#F5F5F5" stroke-width="1"/></pattern><marker id="arrow-blue" viewBox="0 0 10 10" refX="9" refY="5" markerWidth="6" markerHeight="6" orient="auto-start-reverse"><path d="M 0 0 L 10 5 L 0 10 L 2 5 z" fill="#58C4DD" /></marker><marker id="arrow-red" viewBox="0 0 10 10" refX="9" refY="5" markerWidth="6" markerHeight="6" orient="auto-start-reverse"><path d="M 0 0 L 10 5 L 0 10 L 2 5 z" fill="#FF7063" /></marker><marker id="arrow-green" viewBox="0 0 10 10" refX="9" refY="5" markerWidth="6" markerHeight="6" orient="auto-start-reverse"><path d="M 0 0 L 10 5 L 0 10 L 2 5 z" fill="#A6E22E" /></marker><marker id="arrow-yellow" viewBox="0 0 10 10" refX="9" refY="5" markerWidth="6" markerHeight="6" orient="auto-start-reverse"><path d="M 0 0 L 10 5 L 0 10 L 2 5 z" fill="#F92672" /></marker><marker id="arrow-axis" viewBox="0 0 10 10" refX="9" refY="5" markerWidth="6" markerHeight="6" orient="auto-start-reverse"><path d="M 0 0 L 10 5 L 0 10 L 2 5 z" fill="#999999" /></marker><marker id="arrow-grid" viewBox="0 0 10 10" refX="9" refY="5" markerWidth="6" markerHeight="6" orient="auto-start-reverse"><path d="M 0 0 L 10 5 L 0 10 L 2 5 z" fill="#F5F5F5" /></marker><marker id="arrow-text" viewBox="0 0 10 10" refX="9" refY="5" markerWidth="6" markerHeight="6" orient="auto-start-reverse"><path d="M 0 0 L 10 5 L 0 10 L 2 5 z" fill="#333333" /></marker><filter id="halo" x="-30%" y="-30%" width="160%" height="160%"><feMorphology operator="dilate" radius="2" in="SourceGraphic" result="thicker" /><feGaussianBlur stdDeviation="1" in="thicker" result="blurred" /><feFlood flood-color="white" result="white" /><feComposite in="white" in2="blurred" operator="in" result="halo" /><feMerge><feMergeNode in="halo" /><feMergeNode in="SourceGraphic" /></feMerge></filter></defs><rect width="100%" height="100%" fill="white"/><rect width="100%" height="100%" fill="url(#g)"/><g font-family="serif" font-style="italic" font-size="19"><path d="M 50,200 L 250,220 L 350,140 L 150,120 Z" fill-opacity="0.1" fill="gray" stroke="gray"/><line x1="180" y1="165" x2="300" y2="180" stroke="#58C4DD" stroke-width="3" marker-end="url(#arrow-blue)"/><line x1="180" y1="165" x2="250" y2="140" stroke="#FF7063" stroke-width="3" marker-end="url(#arrow-red)"/><line x1="180" y1="165" x2="180" y2="40" stroke="#A6E22E" stroke-width="4" marker-end="url(#arrow-green)"/><text x="190" y="55" fill="#A6E22E" filter="url(#halo)" font-size="18">c</text></g></svg>