<svg width="400" height="300" viewBox="0 0 400 300" xmlns="http://www.w3.org/2000/svg"><defs><pattern id="g" width="40" height="40" patternUnits="userSpaceOnUse"><path d="M 40 0 L 0 0 0 40" fill="none" stroke="#F5F5F5" stroke-width="1"/></pattern><marker id="arrow-blue" viewBox="0 0 10 10" refX="9" refY="5" markerWidth="6" markerHeight="6" orient="auto-start-reverse"><path d="M 0 0 L 10 5 L 0 10 L 2 5 z" fill="#58C4DD" /></marker><marker id="arrow-red" viewBox="0 0 10 10" refX="9" refY="5" markerWidth="6" markerHeight="6" orient="auto-start-reverse"><path d="M 0 0 L 10 5 L 0 10 L 2 5 z" fill="#FF7063" /></marker><marker id="arrow-green" viewBox="0 0 10 10" refX="9" refY="5" markerWidth="6" markerHeight="6" orient="auto-start-reverse"><path d="M 0 0 L 10 5 L 0 10 L 2 5 z" fill="#A6E22E" /></marker><marker id="arrow-yellow" viewBox="0 0 10 10" refX="9" refY="5" markerWidth="6" markerHeight="6" orient="auto-start-reverse"><path d="M 0 0 L 10 5 L 0 10 L 2 5 z" fill="#F92672" /></marker><marker id="arrow-axis" viewBox="0 0 10 10" refX="9" refY="5" markerWidth="6" markerHeight="6" orient="auto-start-reverse"><path d="M 0 0 L 10 5 L 0 10 L 2 5 z" fill="#999999" /></marker><marker id="arrow-grid" viewBox="0 0 10 10" refX="9" refY="5" markerWidth="6" markerHeight="6" orient="auto-start-reverse"><path d="M 0 0 L 10 5 L 0 10 L 2 5 z" fill="#F5F5F5" /></marker><marker id="arrow-text" viewBox="0 0 10 10" refX="9" refY="5" markerWidth="6" markerHeight="6" orient="auto-start-reverse"><path d="M 0 0 L 10 5 L 0 10 L 2 5 z" fill="#333333" /></marker><filter id="halo" x="-30%" y="-30%" width="160%" height="160%"><feMorphology operator="dilate" radius="2" in="SourceGraphic" result="thicker" /><feGaussianBlur stdDeviation="1" in="thicker" result="blurred" /><feFlood flood-color="white" result="white" /><feComposite in="white" in2="blurred" operator="in" result="halo" /><feMerge><feMergeNode in="halo" /><feMergeNode in="SourceGraphic" /></feMerge></filter></defs><rect width="100%" height="100%" fill="white"/><rect width="100%" height="100%" fill="url(#g)"/><g font-family="serif" font-style="italic" font-size="19"><line x1="50" y1="150" x2="350" y2="150" stroke="#999999"/><line x1="200" y1="50" x2="200" y2="250" stroke="#999999"/><path d="M 330,80 Q 230,150 330,220" fill="none" stroke="#FF7063" stroke-width="3"/><path d="M 70,80 Q 170,150 70,220" fill="none" stroke="#FF7063" stroke-width="3"/><line x1="200" y1="155" x2="255" y2="155" stroke="black" stroke-width="2"/><line x1="200" y1="150" x2="200" y2="160" stroke="black"/><line x1="255" y1="150" x2="255" y2="160" stroke="black"/><text x="220" y="185" fill="#333333" filter="url(#halo)" font-size="18">a</text></g></svg>