<svg width="400" height="250" viewBox="0 0 400 250" xmlns="http://www.w3.org/2000/svg"><defs><pattern id="g" width="40" height="40" patternUnits="userSpaceOnUse"><path d="M 40 0 L 0 0 0 40" fill="none" stroke="#F5F5F5" stroke-width="1"/></pattern><marker id="arrow-blue" viewBox="0 0 10 10" refX="9" refY="5" markerWidth="6" markerHeight="6" orient="auto-start-reverse"><path d="M 0 0 L 10 5 L 0 10 L 2 5 z" fill="#58C4DD" /></marker><marker id="arrow-red" viewBox="0 0 10 10" refX="9" refY="5" markerWidth="6" markerHeight="6" orient="auto-start-reverse"><path d="M 0 0 L 10 5 L 0 10 L 2 5 z" fill="#FF7063" /></marker><marker id="arrow-green" viewBox="0 0 10 10" refX="9" refY="5" markerWidth="6" markerHeight="6" orient="auto-start-reverse"><path d="M 0 0 L 10 5 L 0 10 L 2 5 z" fill="#A6E22E" /></marker><marker id="arrow-yellow" viewBox="0 0 10 10" refX="9" refY="5" markerWidth="6" markerHeight="6" orient="auto-start-reverse"><path d="M 0 0 L 10 5 L 0 10 L 2 5 z" fill="#F92672" /></marker><marker id="arrow-axis" viewBox="0 0 10 10" refX="9" refY="5" markerWidth="6" markerHeight="6" orient="auto-start-reverse"><path d="M 0 0 L 10 5 L 0 10 L 2 5 z" fill="#999999" /></marker><marker id="arrow-grid" viewBox="0 0 10 10" refX="9" refY="5" markerWidth="6" markerHeight="6" orient="auto-start-reverse"><path d="M 0 0 L 10 5 L 0 10 L 2 5 z" fill="#F5F5F5" /></marker><marker id="arrow-text" viewBox="0 0 10 10" refX="9" refY="5" markerWidth="6" markerHeight="6" orient="auto-start-reverse"><path d="M 0 0 L 10 5 L 0 10 L 2 5 z" fill="#333333" /></marker><filter id="halo" x="-30%" y="-30%" width="160%" height="160%"><feMorphology operator="dilate" radius="2" in="SourceGraphic" result="thicker" /><feGaussianBlur stdDeviation="1" in="thicker" result="blurred" /><feFlood flood-color="white" result="white" /><feComposite in="white" in2="blurred" operator="in" result="halo" /><feMerge><feMergeNode in="halo" /><feMergeNode in="SourceGraphic" /></feMerge></filter></defs><rect width="100%" height="100%" fill="white"/><rect width="100%" height="100%" fill="url(#g)"/><g font-family="serif" font-style="italic" font-size="19"><path d="M 50,180 L 300,210 L 380,100 L 130,70 Z" fill="#F92672" fill-opacity="0.1" stroke="#F92672"/><circle cx="180" cy="140" r="4"/><line x1="180" y1="140" x2="300" y2="160" stroke="#58C4DD" marker-end="url(#arrow-blue)"/><line x1="180" y1="140" x2="220" y2="90" stroke="#FF7063" marker-end="url(#arrow-red)"/></g></svg>